<svg xmlns="http://www.w3.org/2000/svg" fill="none" viewBox="0 0 132 28" height="28" width="132">
<g clip-path="url(#clip0_1603_956)">
<path fill="white" d="M0 0.495728H10.6566C16.6174 0.495728 19.3719 2.84069 19.3719 7.39406C19.3719 10.8655 17.3845 12.8943 14.1335 13.6616V14.0683C18.5588 14.564 20.7722 16.5023 20.7722 20.2453C20.7722 24.5286 18.1084 27.5503 11.605 27.5503H0V0.497212V0.495728ZM3.25095 3.20134V12.7147H10.5659C13.8184 12.7147 16.1655 11.4072 16.1655 7.80072C16.1655 4.73446 14.63 3.20134 10.8365 3.20134H3.25095ZM3.25095 15.2853V24.8892H11.4697C15.6245 24.8892 17.5212 22.9049 17.5212 20.0643C17.5212 17.044 15.895 15.2853 11.1992 15.2853H3.25095Z"></path>
<path fill="white" d="M23.6187 27.5488V0.495728H26.8696V27.5488H23.6187Z"></path>
<path fill="white" d="M29.7593 14.3384C29.7593 5.77186 34.0939 0 42.72 0C49.7198 0 53.5579 3.74155 54.6877 9.87406L51.6166 10.5508C50.4883 5.41122 47.6878 2.9312 42.7661 2.9312C35.7662 2.9312 33.0563 7.44005 33.0563 14.3384C33.0563 21.0111 35.9921 25.1593 42.9459 25.1593C49.9904 25.1593 51.8871 21.3718 51.8871 17.2236V17.3141V16.8184H42.8552V13.9777H55.0028V27.5488H51.9317V21.3718H51.5705C50.3962 25.0243 47.5065 28 42.0867 28C34.5904 28 29.7578 23.3561 29.7578 14.3384H29.7593Z"></path>
<path fill="white" d="M65.0293 0.495728H75.1894C84.2659 0.495728 88.6912 5.23017 88.6912 13.8872C88.6912 22.4537 83.6327 27.5488 75.3247 27.5488H65.0293V0.495728ZM68.2802 3.29187V24.7542H75.0542C82.5044 24.7542 85.4402 20.5615 85.4402 13.8887C85.4402 6.67425 82.1878 3.29335 74.7375 3.29335H68.2802V3.29187Z"></path>
<path fill="white" d="M107.343 19.3875H94.5641L91.4484 27.5488H88.0161L98.8987 0.495728H103.144L113.982 27.5488H110.505L107.345 19.3875H107.343ZM95.5571 16.8169H106.35L105.041 13.4806C103.776 10.2347 102.422 6.31212 101.518 3.38092H100.479C99.4858 6.35664 98.1302 10.1887 96.8206 13.4806L95.5556 16.8169H95.5571Z"></path>
<path fill="white" d="M118.361 27.5488V18.2165L107.931 0.991434V0.495728H111.408L119.762 15.5094H120.258L128.614 0.495728H132V0.991434L121.614 18.3055V27.5488H118.363H118.361Z"></path>
</g>
<defs>
<clipPath id="clip0_1603_956">
<rect fill="white" height="28" width="132"></rect>
</clipPath>
</defs>
</svg>
