<svg width="500" height="122" viewBox="0 0 500 122" fill="none" xmlns="http://www.w3.org/2000/svg">
<g clip-path="url(#clip0_4003_331)">
<path d="M79.4 117.9C66.4 120.2 54.7 121.8 44.2 121.8C33.7 121.8 20 119.3 13.6 113.7C1.79995 103.5 0.199951 85.9 0.199951 58.1C0.199951 30.3 1.49995 24.2 8.39995 13.9C14.5 4.8 25.4999 0.199997 41.5999 0.199997C66.2999 0.199997 79.4 12.7 79.4 36.4V38.2H55.0999V36.7C55.0999 23.4 50.5 17 41 17C26.5 17 25.1 30.3 25.1 60.6C25.1 90.9 26.1 104.7 44.7 104.7C63.3 104.7 52.3 104 57 102.9V76.4H43.4V57.8H79.6V118L79.4 117.9Z" fill="white"/>
<path d="M152.4 75.5L140.1 24.2L127.1 75.5H152.4ZM156.8 93.8H122.4L116.2 120.1H91.4L124.7 1.7H156.3L189.2 120.1H163.2L156.8 93.8Z" fill="white"/>
<path d="M226.1 101.7H236.8C255.2 101.7 257.5 89 257.5 60.8C257.5 32.6 255.2 19.9 236.8 19.9H226.1V101.8V101.7ZM240.1 1.8C271.7 1.8 281.5 18.6 281.5 61C281.5 103.4 271.6 120.2 240.1 120.2H201.3V1.8H240.1Z" fill="white"/>
<path d="M294.3 99.7L343.3 20.8H296.6V1.7H368.1V22.7L319.8 100.7H369.8V120.1H294.3V99.7Z" fill="white"/>
<path d="M381.8 120.1V1.7H406.4V47.7H433.4V1.7H458.2V120.1H433.4V67.6H406.4V120.1H381.8Z" fill="white"/>
<path d="M500 1.7H476V120.1H500V1.7Z" fill="white"/>
</g>
<defs>
<clipPath id="clip0_4003_331">
<rect width="500" height="122" fill="white"/>
</clipPath>
</defs>
</svg>
